<svg xmlns="http://www.w3.org/2000/svg" width="1600" height="560" viewBox="0 0 1600 560" role="img"><rect x="35" y="25" width="1530" height="515" rx="30" fill="#fbfcff" stroke="#2657c8" stroke-width="4" stroke-dasharray="12 11"/><rect x="650" y="65" width="300" height="125" rx="22" fill="#f8faff" stroke="#d6e0ed" stroke-width="3"/><path d="M653 68 H947" stroke="#2657c8" stroke-width="8" stroke-linecap="round"/><text x="800.0" y="125" fill="#172238" font-family="Pretendard,Arial,sans-serif" font-size="39" font-weight="700" text-anchor="middle">LLM</text><text x="800.0" y="176" fill="#526174" font-family="Pretendard,Arial,sans-serif" font-size="24" font-weight="500" text-anchor="middle">판단·생성</text><path d="M800 190 V243 M220 243 H1380" fill="none" stroke="#73849a" stroke-width="4" stroke-linecap="round"/><path d="M245 243 V255" fill="none" stroke="#73849a" stroke-width="4" stroke-linecap="round"/><path d="M235 255 L245 271 L255 255" fill="none" stroke="#73849a" stroke-width="4" stroke-linejoin="round"/><rect x="70" y="286" width="350" height="155" rx="22" fill="#f8faff" stroke="#d6e0ed" stroke-width="3"/><path d="M73 289 H417" stroke="#16846c" stroke-width="8" stroke-linecap="round"/><text x="245.0" y="346" fill="#172238" font-family="Pretendard,Arial,sans-serif" font-size="33" font-weight="700" text-anchor="middle">컨텍스트</text><text x="245.0" y="397" fill="#526174" font-family="Pretendard,Arial,sans-serif" font-size="25" font-weight="500" text-anchor="middle">대화·요약</text><path d="M615 243 V255" fill="none" stroke="#73849a" stroke-width="4" stroke-linecap="round"/><path d="M605 255 L615 271 L625 255" fill="none" stroke="#73849a" stroke-width="4" stroke-linejoin="round"/><rect x="440" y="286" width="350" height="155" rx="22" fill="#f8faff" stroke="#d6e0ed" stroke-width="3"/><path d="M443 289 H787" stroke="#7055bd" stroke-width="8" stroke-linecap="round"/><text x="615.0" y="346" fill="#172238" font-family="Pretendard,Arial,sans-serif" font-size="33" font-weight="700" text-anchor="middle">도구</text><text x="615.0" y="397" fill="#526174" font-family="Pretendard,Arial,sans-serif" font-size="25" font-weight="500" text-anchor="middle">등록·호출</text><path d="M985 243 V255" fill="none" stroke="#73849a" stroke-width="4" stroke-linecap="round"/><path d="M975 255 L985 271 L995 255" fill="none" stroke="#73849a" stroke-width="4" stroke-linejoin="round"/><rect x="810" y="286" width="350" height="155" rx="22" fill="#f8faff" stroke="#d6e0ed" stroke-width="3"/><path d="M813 289 H1157" stroke="#c47935" stroke-width="8" stroke-linecap="round"/><text x="985.0" y="346" fill="#172238" font-family="Pretendard,Arial,sans-serif" font-size="33" font-weight="700" text-anchor="middle">권한</text><text x="985.0" y="397" fill="#526174" font-family="Pretendard,Arial,sans-serif" font-size="25" font-weight="500" text-anchor="middle">위험 행동 승인</text><path d="M1355 243 V255" fill="none" stroke="#73849a" stroke-width="4" stroke-linecap="round"/><path d="M1345 255 L1355 271 L1365 255" fill="none" stroke="#73849a" stroke-width="4" stroke-linejoin="round"/><rect x="1180" y="286" width="350" height="155" rx="22" fill="#f8faff" stroke="#d6e0ed" stroke-width="3"/><path d="M1183 289 H1527" stroke="#16846c" stroke-width="8" stroke-linecap="round"/><text x="1355.0" y="346" fill="#172238" font-family="Pretendard,Arial,sans-serif" font-size="33" font-weight="700" text-anchor="middle">검증·기록</text><text x="1355.0" y="397" fill="#526174" font-family="Pretendard,Arial,sans-serif" font-size="25" font-weight="500" text-anchor="middle">테스트·재개</text><text x="800" y="505" fill="#526174" font-family="Pretendard,Arial,sans-serif" font-size="27" font-weight="600" text-anchor="middle">하네스 = 모델을 둘러싼 실행 환경과 제어 규칙</text></svg>